<svg width="24" height="24" viewBox="0 0 24 24" fill="none" xmlns="http://www.w3.org/2000/svg">
<path d="M8.26227 1.96191C8.81492 1.73204 9.19048 1.72364 9.43024 1.77148C9.66958 1.81935 9.81742 1.93212 9.89996 2.01758L9.9068 2.02344C9.99153 2.10819 10.0994 2.25508 10.1441 2.48438C10.1886 2.7128 10.1792 3.06933 9.95172 3.58984V3.59082C9.46425 4.71412 9.21984 5.91267 9.23004 7.1416V7.14258C9.25139 11.8454 13.1476 15.8168 17.897 16.0088V16.0098C18.5877 16.0416 19.265 15.9878 19.9175 15.8721H19.9195C20.5024 15.7661 20.8652 15.8388 21.0845 15.9355C21.3033 16.0321 21.4222 16.171 21.4849 16.2725C21.5497 16.3773 21.6229 16.5481 21.6138 16.7881C21.6047 17.0282 21.5105 17.3861 21.1578 17.8623L21.1568 17.8652C19.1324 20.6345 15.9124 22.25 12.4595 22.25C12.2873 22.25 12.1318 22.2502 11.9791 22.2412L11.9722 22.2402C6.78772 22.0087 2.43102 17.9519 1.82574 12.9336L1.77887 12.4443C1.45452 7.94166 4.05819 3.73034 8.26227 1.96191ZM9.17047 2.25C9.00076 2.25 8.77414 2.28889 8.46637 2.41895C4.46118 4.10092 1.97629 8.11882 2.27106 12.4043V12.4053C2.6295 17.4235 6.89892 21.5163 11.9859 21.7383V21.7393C15.4436 21.9074 18.7235 20.3306 20.7427 17.5752L20.7437 17.5762L20.7466 17.5703C20.9189 17.3291 21.0111 17.141 21.0582 17.0156L21.2838 16.4141L20.6451 16.3428C20.5461 16.3318 20.4017 16.3233 20.2056 16.3457L20.0025 16.3779C19.309 16.5014 18.5847 16.5491 17.8697 16.5205C12.8533 16.3209 8.75031 12.107 8.72028 7.16016C8.72028 5.84876 8.97633 4.58966 9.49567 3.40723C9.62409 3.1247 9.65309 2.92021 9.66656 2.8125L9.73688 2.25H9.17047Z" stroke="#090D1F"/>
</svg>
